<?xml version="1.0" encoding="UTF-8" standalone="no"?>
<!DOCTYPE svg PUBLIC "-//W3C//DTD SVG 1.1//EN" "http://www.w3.org/Graphics/SVG/1.1/DTD/svg11.dtd">
<svg width="100%" height="100%" viewBox="0 0 400 400" version="1.1"
    xmlns="http://www.w3.org/2000/svg" xmlns:xlink="http://www.w3.org/1999/xlink"
    xml:space="preserve" xmlns:serif="http://www.serif.com/"
    style="fill-rule:evenodd;clip-rule:evenodd;stroke-linejoin:round;stroke-miterlimit:2;"><rect id="Artboard1" x="0" y="0" width="400" height="400" style="fill:none;"/><clipPath id="_clip1"><rect id="Artboard11" serif:id="Artboard1" x="0" y="0" width="400" height="400"/></clipPath><g clip-path="url(#_clip1)"><g><g><path d="M195.669,309.629l113.057,-113.057l15.462,15.462l-128.519,128.52l-60.207,-60.207l15.462,-15.462l44.745,44.744Z" style="fill:rgb(101,197,57);"/><path d="M75.812,150.257l115.939,-98.844l117.036,99.778l-0,35.711l-28.087,-0l0,-22.748l-88.949,-75.833l-87.766,74.825l-0.087,-0.101l0,106.893l-28.086,0l-0,-119.681Z" style="fill:rgb(0,163,255);"/><rect x="169.106" y="177.746" width="47.601" height="74.82" style="fill:rgb(0,163,255);"/></g><path d="M400,0l-0,400.3l-24.49,0l0,-0.3l-351.02,0l-0,0.3l-24.49,0l-0,-400.3l400,0Zm-375.51,375.51l351.02,0l0,-351.02l-351.02,-0l-0,351.02Z" style="fill:rgb(0,163,255);"/></g></g></svg>